name rise44.9368peak50.754fall52.0217.mot
datacolumns 19
datarows 28
range 0.000000 0.045001
endheader
time	ground_force1_vx	ground_force1_vy	ground_force1_vz	ground_force1_px	ground_force1_py	ground_force1_pz	ground_force2_vx	ground_force2_vy	ground_force2_vz	ground_force2_px	ground_force2_py	ground_force2_pz	ground_torque1_x	ground_torque1_y	ground_torque1_z	ground_torque2_x	ground_torque2_y	ground_torque2_z	
0.000000	12.524013	701.530682	41.877704	0.307776	0.000000	0.095830	0.000000	0.000000	0.000000	0.000000	0.000000	0.000000	0.000000	28.801476	0.000000	0.000000	0.000000	0.000000	
0.001674	13.081771	701.956971	41.948374	0.307848	0.000000	0.095894	0.000000	0.000000	0.000000	0.000000	0.000000	0.000000	0.000000	28.512786	0.000000	0.000000	0.000000	0.000000	
0.003341	13.634208	702.379034	42.018383	0.307918	0.000000	0.095957	0.000000	0.000000	0.000000	0.000000	0.000000	0.000000	0.000000	28.226759	0.000000	0.000000	0.000000	0.000000	
0.005014	14.178096	702.796808	42.087480	0.307985	0.000000	0.096016	0.000000	0.000000	0.000000	0.000000	0.000000	0.000000	0.000000	27.944534	0.000000	0.000000	0.000000	0.000000	
0.006674	14.710811	703.210801	42.155492	0.308049	0.000000	0.096073	0.000000	0.000000	0.000000	0.000000	0.000000	0.000000	0.000000	27.666917	0.000000	0.000000	0.000000	0.000000	
0.008335	15.230266	703.621942	42.222315	0.308108	0.000000	0.096127	0.000000	0.000000	0.000000	0.000000	0.000000	0.000000	0.000000	27.394435	0.000000	0.000000	0.000000	0.000000	
0.010006	15.734836	704.031439	42.287891	0.308163	0.000000	0.096178	0.000000	0.000000	0.000000	0.000000	0.000000	0.000000	0.000000	27.127396	0.000000	0.000000	0.000000	0.000000	
0.011667	16.223260	704.440634	42.352195	0.308211	0.000000	0.096225	0.000000	0.000000	0.000000	0.000000	0.000000	0.000000	0.000000	26.865955	0.000000	0.000000	0.000000	0.000000	
0.013336	16.694554	704.850888	42.415219	0.308251	0.000000	0.096270	0.000000	0.000000	0.000000	0.000000	0.000000	0.000000	0.000000	26.610172	0.000000	0.000000	0.000000	0.000000	
0.015004	17.147914	705.263481	42.476959	0.308284	0.000000	0.096310	0.000000	0.000000	0.000000	0.000000	0.000000	0.000000	0.000000	26.360068	0.000000	0.000000	0.000000	0.000000	
0.016675	17.582636	705.679548	42.537407	0.308308	0.000000	0.096347	0.000000	0.000000	0.000000	0.000000	0.000000	0.000000	0.000000	26.115666	0.000000	0.000000	0.000000	0.000000	
0.018340	17.998054	706.100033	42.596537	0.308321	0.000000	0.096380	0.000000	0.000000	0.000000	0.000000	0.000000	0.000000	0.000000	25.877025	0.000000	0.000000	0.000000	0.000000	
0.020006	18.393483	706.525676	42.654309	0.308324	0.000000	0.096408	0.000000	0.000000	0.000000	0.000000	0.000000	0.000000	0.000000	25.644264	0.000000	0.000000	0.000000	0.000000	
0.021678	18.768188	706.957015	42.710663	0.308313	0.000000	0.096433	0.000000	0.000000	0.000000	0.000000	0.000000	0.000000	0.000000	25.417568	0.000000	0.000000	0.000000	0.000000	
0.023333	19.121364	707.394411	42.765519	0.308290	0.000000	0.096454	0.000000	0.000000	0.000000	0.000000	0.000000	0.000000	0.000000	25.197195	0.000000	0.000000	0.000000	0.000000	
0.025007	19.452131	707.838082	42.818783	0.308251	0.000000	0.096470	0.000000	0.000000	0.000000	0.000000	0.000000	0.000000	0.000000	24.983467	0.000000	0.000000	0.000000	0.000000	
0.026672	19.759542	708.288145	42.870349	0.308197	0.000000	0.096482	0.000000	0.000000	0.000000	0.000000	0.000000	0.000000	0.000000	24.776758	0.000000	0.000000	0.000000	0.000000	
0.028337	20.042600	708.744661	42.920103	0.308126	0.000000	0.096490	0.000000	0.000000	0.000000	0.000000	0.000000	0.000000	0.000000	24.577480	0.000000	0.000000	0.000000	0.000000	
0.030005	20.300278	709.207677	42.967934	0.308037	0.000000	0.096494	0.000000	0.000000	0.000000	0.000000	0.000000	0.000000	0.000000	24.386062	0.000000	0.000000	0.000000	0.000000	
0.031667	20.531545	709.677266	43.013729	0.307929	0.000000	0.096493	0.000000	0.000000	0.000000	0.000000	0.000000	0.000000	0.000000	24.202937	0.000000	0.000000	0.000000	0.000000	
0.033347	20.735394	710.153562	43.057387	0.307800	0.000000	0.096487	0.000000	0.000000	0.000000	0.000000	0.000000	0.000000	0.000000	24.028525	0.000000	0.000000	0.000000	0.000000	
0.035008	20.910866	710.636781	43.098820	0.307649	0.000000	0.096478	0.000000	0.000000	0.000000	0.000000	0.000000	0.000000	0.000000	23.863213	0.000000	0.000000	0.000000	0.000000	
0.036666	21.057070	711.127242	43.137954	0.307476	0.000000	0.096464	0.000000	0.000000	0.000000	0.000000	0.000000	0.000000	0.000000	23.707349	0.000000	0.000000	0.000000	0.000000	
0.038334	21.173206	711.625372	43.174733	0.307278	0.000000	0.096446	0.000000	0.000000	0.000000	0.000000	0.000000	0.000000	0.000000	23.561234	0.000000	0.000000	0.000000	0.000000	
0.040002	21.258576	712.131710	43.209122	0.307056	0.000000	0.096423	0.000000	0.000000	0.000000	0.000000	0.000000	0.000000	0.000000	23.425113	0.000000	0.000000	0.000000	0.000000	
0.041674	21.312592	712.646901	43.241105	0.306808	0.000000	0.096397	0.000000	0.000000	0.000000	0.000000	0.000000	0.000000	0.000000	23.299175	0.000000	0.000000	0.000000	0.000000	
0.043336	21.334785	713.171688	43.270687	0.306532	0.000000	0.096366	0.000000	0.000000	0.000000	0.000000	0.000000	0.000000	0.000000	23.183554	0.000000	0.000000	0.000000	0.000000	
0.045001	21.324805	713.706900	43.297891	0.306229	0.000000	0.096332	0.000000	0.000000	0.000000	0.000000	0.000000	0.000000	0.000000	23.078328	0.000000	0.000000	0.000000	0.000000	
